<?xml version="1.0" ?><svg data-name="Layer 1" id="Layer_1" viewBox="0 0 64 64" xmlns="http://www.w3.org/2000/svg"><defs><style>.cls-1{fill:#e2e7f0;}.cls-2{fill:#9dacba;}.cls-3{fill:#c9d5e3;}</style></defs><title/><path class="cls-1" d="M13,0A4,4,0,0,0,9,4V60a4,4,0,0,0,4,4H51a4,4,0,0,0,4-4V16L39,0H13Z"/><path class="cls-2" d="M43,16H55L39,0V12A4,4,0,0,0,43,16Z"/><rect class="cls-2" height="2" rx="1" ry="1" width="18" x="23" y="20"/><rect class="cls-2" height="2" rx="1" ry="1" width="30" x="17" y="41"/><rect class="cls-2" height="2" rx="1" ry="1" width="18" x="17" y="53"/><rect class="cls-2" height="2" rx="1" ry="1" width="30" x="17" y="47"/><rect class="cls-2" height="2" rx="1" ry="1" width="30" x="17" y="35"/><rect class="cls-2" height="2" rx="1" ry="1" width="30" x="17" y="29"/><path class="cls-3" d="M43,16l9.41,9.41A2,2,0,0,1,53,26.83V60a2,2,0,0,1-2,2H15a2,2,0,0,0-2,2H51a4,4,0,0,0,4-4V16H43Z"/></svg>